<svg xmlns="http://www.w3.org/2000/svg" width="842.744" height="828.904" viewBox="0 0 842.744 828.904"><defs><style>.a{fill:#efefef;opacity:0.419;}</style></defs><path class="a" d="M533.714,665.705A28.107,28.107,0,0,1,531,664.12q-4.452-2.688-8.622-5.773c-43.779-24.843-129.947-6-129.947-6l-.932-.689a330.581,330.581,0,0,1-62.628,5.955C147.241,657.608,0,510.4,0,328.8S147.241,0,328.872,0,657.744,147.211,657.744,328.8a329.028,329.028,0,0,1-11.371,86.027c-2.139,21.457.147,54.448,26.064,82.182a31.41,31.41,0,0,1,3.864,5.018A110.813,110.813,0,0,1,533.714,665.705Z" transform="translate(164.507) rotate(14)"/></svg>