<svg xmlns="http://www.w3.org/2000/svg" width="19.088" height="18.954" viewBox="0 0 19.088 18.954"><defs><style>.a{fill:none;stroke:#848484;}</style></defs><g transform="translate(-2030.5 -434.546)"><g transform="translate(1180.086 -82.288)"><path class="a" d="M861.465,524.051l6.64,1.319a1.113,1.113,0,0,1,.9,1.1v7.688a1.129,1.129,0,0,1-1.13,1.13h-6.784a.373.373,0,0,0,.377-.377v-.377h6.407a.377.377,0,0,0,.376-.376V526.47a.378.378,0,0,0-.294-.369l-6.489-1.281Z"/><path class="a" d="M861.465,534.911a.377.377,0,1,1-.753,0V524.36a.37.37,0,0,1,.452-.369l.3.06v10.86Z"/><path class="a" d="M860.712,534.534v.377a.373.373,0,0,0,.376.377h-3.014a.374.374,0,0,0,.377-.377v-.377Z"/><path class="a" d="M857.7,531.143a.378.378,0,0,0-.377-.377h-2.261a.374.374,0,0,0-.377.377v3.391h-.753v-3.391a1.129,1.129,0,0,1,1.13-1.131h2.261a1.129,1.129,0,0,1,1.131,1.131v3.391H857.7Z"/><path class="a" d="M854.682,534.534h3.769v.377a.374.374,0,0,1-.377.377H854.3a.373.373,0,0,1-.376-.377v-.377Z"/><path class="a" d="M852.233,517.351l8.283,1.258a1.127,1.127,0,0,1,.949,1.116v4.326l-.3-.06a.37.37,0,0,0-.452.369v-4.635a.381.381,0,0,0-.317-.377l-8.283-1.251a.2.2,0,0,0-.068-.008.353.353,0,0,0-.241.091.36.36,0,0,0-.135.286v15.692a.377.377,0,0,0,.376.376h1.885v.377a.373.373,0,0,0,.376.377h-2.261a1.129,1.129,0,0,1-1.13-1.13V518.466a1.111,1.111,0,0,1,.4-.859A1.13,1.13,0,0,1,852.233,517.351Z"/></g></g></svg>