<svg xmlns="http://www.w3.org/2000/svg" width="187" height="187" viewBox="0 0 187 187"><defs><style>.a{opacity:0.299;}.b,.e{fill:none;}.b{stroke:#76bc92;stroke-linecap:round;stroke-width:4px;stroke-dasharray:1 10;}.c{fill:#76bc92;}.d{stroke:none;}</style></defs><g class="a" transform="translate(-755 3624) rotate(-90)"><g transform="translate(3437.001 755)"><g class="b" transform="translate(0 0)"><circle class="d" cx="93.5" cy="93.5" r="93.5"/><circle class="e" cx="93.5" cy="93.5" r="91.5"/></g><g class="b" transform="translate(11 11)"><circle class="d" cx="82.5" cy="82.5" r="82.5"/><circle class="e" cx="82.5" cy="82.5" r="80.5"/></g><g class="b" transform="translate(25 25)"><circle class="d" cx="68.5" cy="68.5" r="68.5"/><circle class="e" cx="68.5" cy="68.5" r="66.5"/></g><g class="b" transform="translate(35 35)"><circle class="d" cx="58.5" cy="58.5" r="58.5"/><circle class="e" cx="58.5" cy="58.5" r="56.5"/></g><g class="b" transform="translate(49 49)"><circle class="d" cx="44.5" cy="44.5" r="44.5"/><circle class="e" cx="44.5" cy="44.5" r="42.5"/></g><g class="b" transform="translate(64 64)"><circle class="d" cx="29.5" cy="29.5" r="29.5"/><circle class="e" cx="29.5" cy="29.5" r="27.5"/></g><g class="b" transform="translate(74 74)"><circle class="d" cx="19.5" cy="19.5" r="19.5"/><circle class="e" cx="19.5" cy="19.5" r="17.5"/></g></g><path class="c" d="M186.984,95H.016C.006,94.415,0,93.823,0,93.239A93.363,93.363,0,0,1,93.5,0,93.224,93.224,0,0,1,187,93.239c0,.579-.005,1.17-.016,1.757Z" transform="translate(3437 755)"/></g></svg>