<svg xmlns="http://www.w3.org/2000/svg" width="629.496" height="531.967" viewBox="0 0 629.496 531.967"><defs><style>.a{fill:#f4f4f4;opacity:0.845;}</style></defs><path class="a" d="M.5,212.005a160.028,160.028,0,0,1,160.061-160q6.976,0,13.8.586l.187-.626s74.638,16.8,140.334-29.163A86.705,86.705,0,0,1,456.05,62.5c7.36,12.833,23.445,35.124,50.015,43.873,5.65,1.861,9,3.733,10.6,5.575a41.377,41.377,0,1,1-55.359,60.1c-15.347-11.374-42.174-7.728-53.959-5.38a86.1,86.1,0,0,1-23.5,6.415c-33.9,7.531-56.632,50.364-68.557,80.046a158.681,158.681,0,0,1-8.508,24.065c-.951,3.129-1.425,4.923-1.425,4.923l-.743-.274A160.1,160.1,0,0,1,.5,212.005Z" transform="translate(-0.641 182.573) rotate(-20)"/></svg>