<svg xmlns="http://www.w3.org/2000/svg" width="1684.393" height="1297.791" viewBox="0 0 1684.393 1297.791"><defs><style>.a{opacity:0.095;}.b{fill:#ebebeb;opacity:0.283;}.c{fill:#f4f4f4;}.d{opacity:0.053;}.e{opacity:0.215;}</style></defs><g transform="translate(341.393 -2822.947)"><path class="a" d="M.5,136A102.5,102.5,0,0,1,103,33.5q4.468,0,8.837.376l.12-.4s47.8,10.76,89.866-18.683a55.514,55.514,0,0,1,90.4,25.427c4.713,8.222,15.013,22.5,32.028,28.107,3.618,1.192,5.761,2.391,6.785,3.571A26.5,26.5,0,1,1,295.586,110.4c-9.828-7.287-27.007-4.951-34.554-3.447a55.118,55.118,0,0,1-15.048,4.11c-21.708,4.825-36.266,32.265-43.9,51.281a101.686,101.686,0,0,1-5.448,15.417c-.609,2-.913,3.154-.913,3.154l-.476-.175A102.516,102.516,0,0,1,.5,136Z" transform="translate(935.938 3865.738)"/><circle class="b" cx="183.5" cy="183.5" r="183.5" transform="translate(425 3173.738)"/><path class="c" d="M1122.619,709.162c-90.928-76.3-270.518-52.936-287.343-50.549C662.558,700.127,476.6,666.136,340.06,562.19,191.327,448.962-44.817,262.353,19.927,168.452s233.5-77.811,378.427,68.783S583.572,142.974,758.578,75.694C929.868,9.841,1106.1,57.881,1188,228.377c13.973,22.758,65.223,98.147,155.773,143.835a208.7,208.7,0,0,1,37.307,16.921,66.29,66.29,0,0,1,9.524,5.848,208.517,208.517,0,0,1,94.066,189.552c1.263,13.594,6.669,33.82,26.124,47.926a19.928,19.928,0,0,1,3.008,2.652,70.154,70.154,0,0,1-68.834,118.944,17.837,17.837,0,0,1-1.877-.658q-3.091-1.133-6.056-2.546c-30.206-10.151-81.477,11.965-81.477,11.965l-.662-.315a208.228,208.228,0,0,1-232.281-53.339Z" transform="translate(-350.329 2775.606)"/><circle class="d" cx="60.5" cy="60.5" r="60.5" transform="translate(1157 3999.738)"/><circle class="c" cx="37.5" cy="37.5" r="37.5" transform="translate(1112 3350.738)"/><circle class="e" cx="27.5" cy="27.5" r="27.5" transform="translate(1288 3972.738)"/></g></svg>