<svg xmlns="http://www.w3.org/2000/svg" width="227" height="193" viewBox="0 0 227 193"><defs><style>.a{fill:#e61544;}.b{fill:#2f3455;}</style></defs><g transform="translate(389 -3166)"><path class="a" d="M66.5,67a66.2,66.2,0,0,1-13.363-1.36,65.568,65.568,0,0,1-12.45-3.9,66.242,66.242,0,0,1-11.272-6.174,67.157,67.157,0,0,1-9.829-8.178,67.644,67.644,0,0,1-8.121-9.914A67.612,67.612,0,0,1,5.316,26.093a67.606,67.606,0,0,1-3.91-12.581A68.608,68.608,0,0,1,0,0H133a68.6,68.6,0,0,1-1.406,13.512,67.6,67.6,0,0,1-3.91,12.581,67.612,67.612,0,0,1-6.148,11.381,67.645,67.645,0,0,1-8.121,9.914,67.159,67.159,0,0,1-9.829,8.178,66.244,66.244,0,0,1-11.272,6.174,65.569,65.569,0,0,1-12.45,3.9A66.2,66.2,0,0,1,66.5,67Z" transform="translate(-229 3329) rotate(-90)"/><path class="b" d="M96.5,0h0A96.5,96.5,0,0,1,193,96.5v0A96.5,96.5,0,0,1,96.5,193H0a0,0,0,0,1,0,0V96.5A96.5,96.5,0,0,1,96.5,0Z" transform="translate(-196 3359) rotate(180)"/></g></svg>