<svg xmlns="http://www.w3.org/2000/svg" width="781.291" height="773.552" viewBox="0 0 781.291 773.552"><defs><style>.a{fill:#41a5e7;opacity:0.736;}.b{fill:#76bc92;}</style></defs><g transform="translate(431.146 -446.181)"><circle class="a" cx="60" cy="60" r="60" transform="translate(183 524)"/><path class="b" d="M452.779,564.87a23.854,23.854,0,0,1-2.3-1.345q-3.777-2.281-7.315-4.9c-37.14-21.08-110.241-5.1-110.241-5.1l-.791-.584A280.4,280.4,0,0,1,279,558C124.913,558,0,433.087,0,279S124.913,0,279,0,558,124.913,558,279a279.246,279.246,0,0,1-9.646,73c-1.815,18.207.125,46.2,22.111,69.734a26.653,26.653,0,0,1,3.278,4.258A94.018,94.018,0,0,1,452.779,564.87Z" transform="translate(-187.295 446.181) rotate(25)"/></g></svg>