<svg xmlns="http://www.w3.org/2000/svg" width="626.739" height="463.399" viewBox="0 0 626.739 463.399"><defs><style>.a{fill:#c6c8c9;opacity:0.16;}</style></defs><path class="a" d="M.5,235.8C.5,137.494,79.975,57.8,178.011,57.8q7.737,0,15.3.652l.207-.7S276.3,76.435,349.153,25.318a96.025,96.025,0,0,1,156.56,44.155c8.163,14.277,26,39.074,55.466,48.807,6.261,2.068,9.972,4.151,11.747,6.2a45.971,45.971,0,1,1-61.4,66.861c-17.023-12.646-46.77-8.59-59.835-5.978a95.236,95.236,0,0,1-26.048,7.134c-37.6,8.37-62.811,56.025-76.038,89.05a176.946,176.946,0,0,1-9.437,26.775c-1.055,3.481-1.58,5.476-1.58,5.476l-.824-.3a177.49,177.49,0,0,1-159.752,100.3C79.975,413.79.5,334.1.5,235.8Z" transform="matrix(0.996, -0.087, 0.087, 0.996, -0.541, 51.227)"/></svg>