<svg xmlns="http://www.w3.org/2000/svg" width="79.648" height="72.602" viewBox="0 0 79.648 72.602"><defs><style>.a{fill:#eef1ff;}.b{fill:#19144b;}.c{fill:#3c4fe0;}</style></defs><g transform="translate(0 0)"><path class="a" d="M0,58H0V0H58a57.647,57.647,0,0,1-4.558,22.576,58.005,58.005,0,0,1-5.348,9.852,58.388,58.388,0,0,1-7.083,8.584,58.334,58.334,0,0,1-8.584,7.082,58,58,0,0,1-9.852,5.348A57.647,57.647,0,0,1,0,58Z" transform="translate(21.648 14.602)"/><g transform="translate(0 0)"><path class="b" d="M4723.246,1363.916a7.179,7.179,0,1,0-7.213-7.09A7.218,7.218,0,0,0,4723.246,1363.916Z" transform="translate(-4692.16 -1332.864)"/><path class="c" d="M4723.246,1363.916a7.179,7.179,0,1,1,7.155-7.143A7.229,7.229,0,0,1,4723.246,1363.916Z" transform="translate(-4692.16 -1332.864)"/><path class="b" d="M4715.063,1314.952a17.736,17.736,0,0,0-19.463-5.831c-2.079.7-2.845,1.742-2.412,3.268.422,1.488,1.692,1.816,3.8,1.32a16.747,16.747,0,0,1,5.122-.635,13.089,13.089,0,0,1,9.873,20.416c-2.594,3.861-5.846,7.283-8.828,10.88-.829,1-1.762,1.913-2.7,2.928-.043-.054-.087-.1-.131-.158l-4.144,4.535c-2.564,2.794-5.233,5.493-8.228,8.591-2.96-3.064-5.624-5.761-8.186-8.554-.006-.006-.01-.017-.017-.024l-4.323-4.326c-2.406-2.7-4.719-5.2-6.92-7.789-1.553-1.831-3.022-3.744-4.409-5.706a12.528,12.528,0,0,1-1.948-11.055c1.446-5.132,4.815-8.509,10.062-9.512,5.483-1.049,9.986.887,13.29,5.446,1.3,1.789,2.518,2.214,3.807,1.312s1.338-2.227.125-4.038a17.9,17.9,0,0,0-19.39-7.178,18.185,18.185,0,0,0-13.052,15.628c-.507,5.631,1.538,10.3,4.936,14.588,7.288,9.193,15.558,17.455,24.042,25.517a14.91,14.91,0,0,0,1.593,1.165h.8a23.623,23.623,0,0,0,2.327-1.848c5.721-5.807,11.536-11.529,17.064-17.516a87.027,87.027,0,0,0,8.671-11C4720.484,1329.231,4719.741,1320.858,4715.063,1314.952Z" transform="translate(-4656.912 -1308.214)"/><path class="c" d="M4729.489,1400.136c-3.328-4.112-7.366-6.3-12.478-6.256-5.152.048-9.167,2.426-12.419,6.478l4.323,4.326a1.924,1.924,0,0,1-.086-1.773c3.684-5.607,12.845-5.628,16.6-.038a1.9,1.9,0,0,1-.078,1.8Z" transform="translate(-4685.339 -1359.288)"/></g></g></svg>