<svg xmlns="http://www.w3.org/2000/svg" width="67.538" height="80" viewBox="0 0 67.538 80"><defs><style>.a{fill:#fce7e8;}.b{fill:#19144b;}.c{fill:#ff5871;}</style></defs><g transform="translate(0 -0.107)"><path class="a" d="M0,80H0V0A39.749,39.749,0,0,1,15.57,3.143a40,40,0,0,1,6.795,3.688,40.286,40.286,0,0,1,5.92,4.884,40.288,40.288,0,0,1,4.884,5.92,40,40,0,0,1,3.688,6.795,40.132,40.132,0,0,1,0,31.14,40,40,0,0,1-3.688,6.795,40.29,40.29,0,0,1-4.884,5.92,40.288,40.288,0,0,1-5.92,4.884,40,40,0,0,1-6.795,3.688A39.751,39.751,0,0,1,0,80Z" transform="translate(27.538 0.107)"/><g transform="translate(0 15.432)"><g transform="translate(0 0)"><path class="b" d="M4909.145,1354.638v-41.105c1.269-2.374,3.738-.583,5.516-1.572,0-.552,0-1.121,0-1.689.009-2.731.554-3.1,3.047-2.07,6.852,2.836,13.714,5.646,20.543,8.534a3.954,3.954,0,0,0,3.409.028c6.981-2.971,14-5.851,21.016-8.745,1.887-.778,2.559-.326,2.6,1.693.019.789,0,1.58,0,2.564,1.058,0,1.909-.006,2.763,0,2.2.017,2.514.308,2.514,2.479q.01,19.328,0,38.655c0,2.027-.295,2.313-2.284,2.316-6.277.009-12.557.069-18.832-.026a20.973,20.973,0,0,0-8.1,1.3,4.131,4.131,0,0,1-2.783-.014,20.427,20.427,0,0,0-8.1-1.28q-9.415.126-18.833-.022A7.486,7.486,0,0,1,4909.145,1354.638Zm29.271-.573a5.327,5.327,0,0,0,.145-.733c.007-10.823.026-21.646-.04-32.469a2.179,2.179,0,0,0-1.2-1.488c-5.34-2.292-10.714-4.5-16.081-6.726-1.207-.5-2.424-.98-3.809-1.539,0,11.777-.006,23.339.033,34.9a1.441,1.441,0,0,0,.748,1.085C4924.879,1349.434,4931.567,1351.716,4938.415,1354.065Zm24.1-42.9c-.725.265-1.209.421-1.678.615-6,2.485-11.993,5-18.017,7.439a2.044,2.044,0,0,0-1.511,2.25c.056,10.3.031,20.6.035,30.9,0,.5.05,1,.085,1.65.669-.193,1.216-.326,1.746-.508,5.929-2.031,11.845-4.1,17.793-6.074a1.9,1.9,0,0,0,1.577-2.165c-.061-8.171-.031-16.342-.031-24.513Zm-50.342,3.979v37.7h13.413a82.846,82.846,0,0,0-8.725-3.207,2.673,2.673,0,0,1-2.242-3.049c.089-9.832.042-19.665.042-29.5v-1.948Zm55.469,37.752v-37.867l-2.358.143v2.108c0,9.092.028,18.184-.011,27.276-.021,5.1.7,4-4.03,5.669-2.283.807-4.57,1.6-6.855,2.4l.088.269Z" transform="translate(-4909.145 -1307.66)"/><path class="b" d="M4956.282,1356.888c.362-.334,1.179-.754,1.17-1.158a2.209,2.209,0,0,0-1-1.682c-3.123-1.427-6.312-2.7-9.476-4.042-.87-.368-1.75-.531-2.2.5-.476,1.1.228,1.67,1.189,2.069,2.855,1.184,5.7,2.4,8.545,3.6C4954.989,1356.378,4955.469,1356.562,4956.282,1356.888Zm-10.323-15.977-.495-.452c-.257.5-.769,1.025-.708,1.477a2.415,2.415,0,0,0,.961,1.7c3.066,1.419,6.2,2.686,9.313,4.014.9.383,1.854.71,2.381-.4.569-1.2-.294-1.75-1.283-2.162-3.014-1.258-6.019-2.539-9.032-3.8C4946.729,1341.135,4946.338,1341.035,4945.959,1340.91Zm-.191,18.045c-.285.261-.979.609-.985.969a2.071,2.071,0,0,0,.729,1.65c3.329,1.524,6.7,2.964,10.111,4.289.463.18,1.229-.421,1.855-.66-.273-.612-.387-1.569-.846-1.78-3.273-1.508-6.616-2.865-9.94-4.261A6.652,6.652,0,0,0,4945.768,1358.956Z" transform="translate(-4932.289 -1329.051)"/><path class="b" d="M5013.363,1349.785l.646-.581c.269-.09.544-.164.8-.273,3.229-1.355,6.479-2.661,9.655-4.126.525-.242.725-1.19,1.075-1.811-.56-.273-1.263-.915-1.657-.762-3.53,1.368-7.021,2.84-10.474,4.391-.393.177-.661,1.021-.667,1.559A4.66,4.66,0,0,0,5013.363,1349.785Zm12.277,2.779c.03-1.4-1.016-1.964-2.274-1.449-3.184,1.3-6.349,2.65-9.514,4-.862.367-1.649,1.006-1.01,1.939a2.172,2.172,0,0,0,1.981.588c3.267-1.244,6.478-2.635,9.678-4.042A4.331,4.331,0,0,0,5025.64,1352.564Zm.09,9.123c-.394-1.512-1.233-1.774-2.311-1.329-3.231,1.335-6.469,2.661-9.639,4.132-.517.24-.7,1.2-1.037,1.825.675.231,1.491.83,2,.634,3.317-1.268,6.581-2.683,9.83-4.121C5025.077,1362.606,5025.412,1362.013,5025.73,1361.686Z" transform="translate(-4976.625 -1330.193)"/><path class="c" d="M4956.282,1374.264c-.813-.326-1.293-.51-1.766-.709-2.848-1.2-5.69-2.417-8.545-3.6-.961-.4-1.665-.97-1.189-2.069.447-1.034,1.328-.871,2.2-.5,3.163,1.338,6.353,2.615,9.476,4.042a2.209,2.209,0,0,1,1,1.683C4957.461,1373.51,4956.645,1373.93,4956.282,1374.264Z" transform="translate(-4932.289 -1346.427)"/><path class="c" d="M4946.188,1340.91c.379.125.77.224,1.137.378,3.012,1.263,6.017,2.544,9.031,3.8.989.413,1.852.962,1.283,2.162-.525,1.11-1.484.782-2.38.4-3.109-1.329-6.246-2.6-9.313-4.014a2.418,2.418,0,0,1-.96-1.7c-.061-.453.451-.982.707-1.477Z" transform="translate(-4932.518 -1329.051)"/><path class="c" d="M4946.053,1393.645a6.633,6.633,0,0,1,.924.206c3.324,1.4,6.667,2.753,9.939,4.261.459.211.573,1.169.847,1.78-.626.239-1.392.839-1.855.66-3.412-1.325-6.783-2.765-10.112-4.289a2.071,2.071,0,0,1-.729-1.649C4945.074,1394.254,4945.768,1393.906,4946.053,1393.645Z" transform="translate(-4932.575 -1363.741)"/><path class="c" d="M5013.619,1349.785a4.689,4.689,0,0,1-.618-1.6c.005-.538.273-1.382.667-1.559,3.454-1.55,6.944-3.023,10.474-4.391.394-.153,1.1.489,1.657.762-.35.621-.549,1.569-1.075,1.811-3.176,1.466-6.426,2.771-9.654,4.126-.26.109-.536.183-.8.273Z" transform="translate(-4976.882 -1330.193)"/><path class="c" d="M5025.64,1368.914a4.328,4.328,0,0,1-1.14,1.031c-3.2,1.408-6.411,2.8-9.678,4.043a2.172,2.172,0,0,1-1.981-.588c-.639-.933.148-1.572,1.01-1.938,3.165-1.346,6.33-2.7,9.514-4C5024.625,1366.951,5025.67,1367.514,5025.64,1368.914Z" transform="translate(-4976.625 -1346.544)"/><path class="c" d="M5025.985,1395.355c-.319.327-.653.919-1.153,1.14-3.25,1.439-6.513,2.854-9.83,4.121-.512.2-1.328-.4-2-.634.337-.626.52-1.585,1.037-1.825,3.169-1.471,6.407-2.8,9.639-4.132C5024.751,1393.581,5025.592,1393.843,5025.985,1395.355Z" transform="translate(-4976.88 -1363.862)"/></g></g></g></svg>