<svg xmlns="http://www.w3.org/2000/svg" width="74.701" height="76.31" viewBox="0 0 74.701 76.31"><defs><style>.a{fill:#eef1ff;}.b{fill:#fdb400;}.c{fill:#19144b;}.d{fill:#3c4fe0;}</style></defs><g transform="translate(0.125)"><path class="a" d="M34,0h0A34,34,0,0,1,68,34v2A34,34,0,0,1,34,70H0a0,0,0,0,1,0,0V34A34,34,0,0,1,34,0Z" transform="translate(69.875 8.31) rotate(90)"/><g transform="translate(4.034)"><g transform="matrix(0.995, 0.105, -0.105, 0.995, 46.831, 9.63)"><path class="b" d="M19.161,1.727A6.89,6.89,0,0,0,8.2,9.42c.229.577.534,1.123.833,1.745L0,19.956a20.782,20.782,0,0,0,1.9,2.953,2.721,2.721,0,0,1,.6-1.055c2.561-2.588,5.239-5.061,7.781-7.667a2.283,2.283,0,0,1,2.648-.663A6.738,6.738,0,0,0,20.7,10.1,6.853,6.853,0,0,0,19.161,1.727ZM14.6,10.719a3.824,3.824,0,1,1,3.833-3.913A3.829,3.829,0,0,1,14.6,10.719Z" transform="translate(0 0)"/></g><path class="c" d="M5327.265,1430.845a9.257,9.257,0,0,0-13.547-5.8,1.379,1.379,0,0,1-1.286-.114c-2.7-2.6-5.347-5.25-7.993-7.872a11.815,11.815,0,0,0,1.576-11.345,1.034,1.034,0,0,1,.039-.63,20.852,20.852,0,0,1-1.837-2.99l-.283.266a11.825,11.825,0,0,0-11.652-3.479c-.988-3.278-1.876-6.468-2.93-9.6a2.537,2.537,0,0,1,.726-3.113,7.387,7.387,0,0,0,1.074-9.169,7.642,7.642,0,1,0-8.442,11.277,28.809,28.809,0,0,0,3.3.437c1.042,3.431,2.128,6.891,3.106,10.382a2.005,2.005,0,0,1-.5,1.578c-.984,1.073-2.1,2.026-3.265,3.118-4.406-3.052-8.906-6.194-13.433-9.294-1.8-1.237-3.63-2.064-2.808-5.107.683-2.527-1.553-5.036-4.174-5.89a6.109,6.109,0,0,0-6.78,9.417,6.272,6.272,0,0,0,6.813,2.267,3.584,3.584,0,0,1,2.576.087c5.31,3.546,10.54,7.21,15.766,10.88a1.978,1.978,0,0,1,.784,1.315c.083,2.075.036,4.155.036,6.435-2.513.846-5.186,1.667-7.795,2.657a2.553,2.553,0,0,1-3.4-.816,8.013,8.013,0,0,0-9.973-1.624,8.412,8.412,0,1,0,12.027,9.77,30.93,30.93,0,0,0,.551-3.9l10.313-3.4a11.824,11.824,0,0,0,7.807,4.821,11.967,11.967,0,0,0,8.734-2.25c2.423,2.456,4.716,4.86,7.1,7.164a2.021,2.021,0,0,1,.524,2.88,8.911,8.911,0,0,0,2.75,11.134,8.763,8.763,0,0,0,11.292-.269c1.465-1.375,2.32-3.4,3.452-5.127v-3.833C5327.433,1431.022,5327.289,1430.948,5327.265,1430.845Zm-42.667-45.364a4.592,4.592,0,1,1,4.571-4.663A4.6,4.6,0,0,1,5284.6,1385.481Zm-21.573,6.894a3.054,3.054,0,1,1,3.143-3.113A3.058,3.058,0,0,1,5263.025,1392.376Zm3.643,34.5a5.362,5.362,0,1,1,5.632-5.08A5.385,5.385,0,0,1,5266.668,1426.879Zm28.714-8.428a8.429,8.429,0,1,1,8.36-8.452A8.428,8.428,0,0,1,5295.382,1418.451Zm22.9,20.7a6.126,6.126,0,1,1,6.161-6A6.128,6.128,0,0,1,5318.285,1439.151Z" transform="translate(-5256.979 -1373.233)"/><g transform="translate(39.694 58.774) rotate(158)"><path class="d" d="M12.352,1.113A4.442,4.442,0,0,0,5.285,6.072c.147.372.344.724.537,1.125L0,12.865a13.4,13.4,0,0,0,1.223,1.9,1.752,1.752,0,0,1,.389-.68c1.651-1.668,3.378-3.262,5.016-4.943a1.472,1.472,0,0,1,1.707-.428,4.344,4.344,0,0,0,5.012-2.2A4.418,4.418,0,0,0,12.352,1.113ZM9.414,6.91a2.465,2.465,0,1,1,2.471-2.523A2.469,2.469,0,0,1,9.414,6.91Z" transform="translate(0 0)"/></g></g></g></svg>