<svg xmlns="http://www.w3.org/2000/svg" xmlns:xlink="http://www.w3.org/1999/xlink" width="1366" height="646" viewBox="0 0 1366 646"><defs><style>.a{fill:#f2f2f2;}.b{fill:#f3f3f3;}.c{clip-path:url(#a);}.d{fill:#dedede;opacity:0.46;}</style><clipPath id="a"><rect class="a" width="1366" height="644" transform="translate(0 4627.717)"/></clipPath></defs><g transform="translate(0 -5102)"><rect class="b" width="1366" height="644" transform="translate(0 5102)"/><g class="c" transform="translate(0 476.283)"><path class="d" d="M749.575,640.468c-175.1-61.782-215.747-282.077-360.455-148.25S75.687,640.5,10.8,554.547,181.781,298.309,330.341,195C466.758,100.129,652.714,69.333,825.53,107.6c18.353,2.362,199.509,23.533,289.3-47.976C1162.094,13.43,1233.584-10.1,1306.64,2.994a224.748,224.748,0,0,1,38.215,10.358l.661-.287s51.3,20.3,81.493,11.062q2.959-1.287,6.052-2.319a19.042,19.042,0,0,1,1.876-.6,76.047,76.047,0,0,1,35.579-2.053c38.039,6.817,62.928,40.518,55.594,75.275a62.553,62.553,0,0,1-22.163,35.642,19.337,19.337,0,0,1-3,2.42c-19.434,12.869-24.809,31.356-26.052,43.784a174.431,174.431,0,0,1-3.245,50.138c-14.8,70.143-70,123.672-139.31,144.4-86.332,40.413-136.52,105.332-152.37,128.364-57.924,112.614-164.8,167.433-283.9,167.437C848.405,666.615,798.8,657.837,749.575,640.468Z" transform="matrix(-1, 0.017, -0.017, -1, 2206.631, 5316.563)"/></g></g></svg>